<?xml version="1.0" encoding="UTF-8"?>
<svg xmlns="http://www.w3.org/2000/svg" viewBox="160 145 1180 700">
  <title>CookPlan Logo</title>
  <desc>CookPlan brand logo - clean vector version</desc>
  <path fill="#2C3A1E" fill-rule="evenodd" d="
M428.697144,152.205688
C442.140961,154.477646 455.767090,156.004028 468.976776,159.233597
C481.893372,162.391510 494.939087,166.105560 506.920349,171.724396
C521.189453,178.416153 534.815125,186.758423 547.912964,195.582901
C558.809082,202.923996 568.638184,211.877930 578.738342,220.357635
C583.126587,224.041779 583.095215,225.586761 578.915649,229.675049
C574.789001,233.711655 570.253235,237.330002 565.553467,241.217331
C565.210022,241.302826 565.374878,241.215836 565.374878,241.215836
C565.240417,241.458542 565.106018,241.701233 564.671875,242.189636
C564.372131,242.435349 564.478760,242.369904 564.478760,242.369904
C564.354492,242.565018 564.230225,242.760147 563.845886,243.258118
C563.585815,243.560989 563.221375,243.551392 563.221375,243.551392
C561.992920,244.998611 560.764526,246.445847 559.309814,248.289154
C558.718140,248.801849 558.352783,248.918457 557.987427,249.035065
C558.086853,249.362000 558.002747,249.631638 557.133667,249.840302
C556.354675,250.262985 556.176941,250.689392 555.999207,251.115784
C555.999207,251.115784 556.003418,251.004898 555.692383,250.936218
C555.257690,251.281830 555.134094,251.696091 555.010437,252.110367
C555.010437,252.110367 555.010193,252.008438 554.695190,251.932327
C554.258423,252.275970 554.136658,252.695709 554.014893,253.115448
C554.014893,253.115463 554.013062,253.016983 553.689331,252.917877
C553.251526,253.251221 553.137451,253.683670 553.023315,254.116119
C553.023315,254.116119 553.022461,254.022705 552.698853,253.923111
C552.253540,254.251740 552.131897,254.679962 552.010254,255.108185
C552.010254,255.108185 552.011414,255.004150 551.705200,254.947876
C551.271240,255.300903 551.143555,255.710236 551.015869,256.119568
C551.015808,256.119537 551.012634,256.021545 550.673706,255.908386
C550.241089,256.235565 550.147400,256.675934 550.053711,257.116272
C550.053711,257.116272 550.046143,257.045044 549.685791,256.907135
C549.238037,257.217438 549.150574,257.665649 549.063110,258.113861
C549.063110,258.113861 549.043884,258.042969 548.674683,257.883301
C548.227356,258.186188 548.149231,258.648743 548.071167,259.111328
C548.071167,259.111328 548.036560,259.036194 547.673096,258.857330
C547.229492,259.156464 547.149292,259.634430 547.069153,260.112427
C547.069153,260.112427 547.036072,260.036621 546.681396,259.852417
C546.233398,260.149994 546.140137,260.631805 546.046875,261.113617
C546.046875,261.113617 546.000732,261.009613 545.834290,260.727875
C544.789612,261.274902 543.911377,262.103668 543.033142,262.932434
C539.725403,266.343109 536.417725,269.753754 532.781250,273.319153
C532.452515,273.473846 532.353821,273.441254 532.353760,273.441223
C531.676086,274.281921 530.998352,275.122650 529.996460,276.229675
C529.672302,276.496002 529.459717,276.703949 529.459717,276.703949
C529.459717,276.703949 529.199890,276.560974 529.199890,276.560974
C527.255798,278.698090 525.311707,280.835205 523.121521,283.277954
C522.875366,283.583527 522.542297,283.931396 522.542297,283.931396
C522.542297,283.931396 522.103088,283.736816 522.103088,283.736816
C520.601257,285.450409 519.099426,287.164001 517.356567,289.297089
C516.717224,289.812317 516.318848,289.908081 515.920471,290.003815
C515.920471,290.003815 515.975830,289.907623 515.802734,290.080200
C515.188293,290.753296 514.747009,291.253784 514.305725,291.754272
C513.278809,292.593933 512.180115,293.360260 511.235718,294.284241
C496.981323,308.230621 482.744720,322.195190 468.509918,336.161591
C464.377014,340.216614 457.675171,339.778381 454.396576,335.084320
C447.998657,325.924316 438.524384,321.038147 428.926636,316.149017
C418.005493,310.585754 406.287903,311.072113 394.937408,312.449738
C385.591949,313.583984 376.922791,318.040924 368.655273,323.036591
C352.701996,332.676422 345.732635,347.771057 343.108459,365.062653
C341.359528,376.587128 344.808289,387.540344 350.365265,397.918671
C360.621246,417.072937 377.203705,426.607849 397.918243,429.593445
C403.681152,430.424042 409.802948,429.414185 415.682983,428.653015
C429.605988,426.850647 441.701172,420.581421 451.131165,410.522705
C457.317108,403.924316 462.305847,401.941040 471.259766,405.517914
C490.997650,413.402740 511.335846,419.784851 531.971130,427.226257
C533.033875,428.647339 533.683472,429.575897 534.054382,430.604919
C536.432434,437.203186 538.749329,443.823517 541.086365,450.436584
C541.515015,450.284393 541.943604,450.132233 542.372192,449.980072
C539.628723,442.083099 536.885193,434.186127 534.141724,426.289154
C532.966614,419.975403 531.123840,413.701172 530.747620,407.340179
C529.802979,391.370239 532.988464,375.664856 537.600403,360.647491
C540.734985,350.440613 546.550964,340.637756 552.941101,331.959991
C560.339905,321.912476 568.965210,312.466675 578.398743,304.310272
C586.568420,297.246613 596.317993,291.805328 605.901611,286.633392
C618.089478,280.055969 631.237671,275.493256 644.987671,273.584259
C654.124817,272.315704 663.493347,271.766785 672.700378,272.181427
C685.035400,272.736938 697.660400,273.154602 709.534790,276.130127
C726.539307,280.391174 742.194519,288.151062 756.648621,298.678741
C768.213013,307.101624 777.583252,317.318481 786.659668,328.027557
C789.241089,331.073364 789.740417,334.173431 786.275940,337.539337
C772.662292,350.765808 761.712585,366.091156 754.237732,383.455902
C748.983459,395.662170 745.284180,408.452637 743.820007,421.986694
C741.477905,443.634430 744.223938,464.503632 750.293945,485.150482
C750.658691,486.391022 752.097046,487.492615 752.070251,488.636200
C752.006653,491.344360 752.360779,495.156219 750.791321,496.559570
C739.614746,506.553894 727.133423,514.670105 712.702271,519.206360
C703.108215,522.222168 693.477173,525.769470 683.598755,527.062927
C671.878357,528.597534 659.856934,528.491943 647.999817,528.093445
C639.984375,527.823975 631.696289,526.829590 624.125793,524.344788
C614.127380,521.063110 604.708130,516.014099 595.049683,511.702850
C593.398682,510.965881 591.796570,510.119507 591.925415,511.346527
C583.455566,518.278381 574.985718,525.210205 565.735535,532.780701
C572.015564,537.094604 576.810852,540.162415 581.360168,543.559570
C591.633118,551.230652 601.094727,559.759399 607.900208,570.801819
C613.318909,579.594299 619.473511,588.095032 623.604980,597.472595
C627.568848,606.469849 630.497986,616.275696 631.795105,626.004395
C633.365417,637.781433 633.850159,649.955017 632.736084,661.761841
C631.769226,672.008362 628.466858,682.163940 625.208130,692.033325
C620.778137,705.450439 612.835876,716.899963 603.332397,727.361755
C590.138306,741.886169 574.360168,752.191101 556.321228,759.994812
C540.779541,766.718140 524.579834,769.850281 508.229675,772.861023
C503.419495,773.746704 498.407959,773.552368 493.486877,773.819519
C485.858032,774.233826 478.219025,774.503052 470.601166,775.062866
C466.365784,775.374084 464.845428,774.061035 464.758453,769.515808
C464.435577,752.640015 464.039307,735.744690 462.868561,718.912476
C461.839050,704.110840 459.720215,689.385620 458.118011,674.622864
C457.613159,669.971069 459.498047,668.276917 464.346893,667.985596
C473.935852,667.409546 483.689362,667.447815 493.036102,665.557434
C502.480255,663.647217 512.531372,655.007446 510.748901,643.779175
C509.420197,635.409546 504.174408,629.901489 495.677826,626.530029
C484.766266,626.063477 474.457733,625.976746 464.149231,625.890015
C464.149231,625.890015 463.716431,626.038025 463.092621,625.881287
C458.060516,625.724548 453.652191,625.724548 448.539062,625.724548
C449.075806,632.000061 449.521118,637.206787 449.966431,642.413513
C450.297974,645.001648 450.762909,647.580627 450.939911,650.179321
C452.330475,670.596069 453.692383,691.014832 454.990417,711.437683
C455.189911,714.576355 455.017120,717.738586 454.646545,721.546265
C454.519073,725.472229 454.699097,728.747864 455.017517,732.010010
C455.597809,737.955444 456.260162,743.892822 456.888245,749.833557
C458.284332,766.312866 459.723358,782.788635 461.054077,799.273254
C461.545532,805.360962 461.952271,811.468323 461.989807,817.569214
C461.997223,818.773987 460.240265,820.926697 459.120056,821.051208
C451.080811,821.945068 442.997925,822.457336 434.924927,823.035156
C416.509155,824.353394 398.093536,825.675354 379.673187,826.927246
C366.386383,827.830322 353.092072,828.622925 339.638824,829.475037
C338.993195,823.073303 338.459137,817.546509 337.873566,812.025146
C336.973053,803.534119 335.724121,795.065857 335.205597,786.552490
C334.700012,778.251831 335.104919,769.899780 334.786194,761.582703
C334.369690,750.712646 333.635101,739.854797 333.035706,728.991760
C333.008240,728.494019 332.948242,727.997742 332.931274,727.499878
C332.604401,717.899292 332.281677,708.298645 331.837891,697.780701
C331.517212,692.606079 331.351105,688.346802 331.108887,684.091858
C330.638000,675.821411 330.112915,667.554077 329.638062,659.283813
C329.542480,657.619446 329.570557,655.947937 329.541626,654.279724
C329.035034,647.523743 328.491486,640.770203 328.029327,634.011230
C327.004547,619.023499 326.015900,604.033325 325.028473,589.043091
C324.941040,587.715698 324.882599,586.375488 324.961792,585.050232
C325.197205,581.109680 323.244720,579.024902 319.611511,577.768860
C295.198120,569.328979 273.347839,556.209412 253.023468,540.502014
C245.209442,534.463013 237.499832,528.136353 230.599335,521.100586
C217.269562,507.509308 205.451935,492.468018 196.490631,475.721680
C189.201324,462.099854 183.645035,447.487274 178.095184,433.016876
C173.117218,420.037476 171.214600,406.328766 171.011246,392.385681
C170.875977,383.110291 169.557358,373.791351 170.149933,364.580811
C170.971878,351.804840 172.499756,339.004333 174.801422,326.411011
C177.745163,310.304749 183.740875,295.152283 191.047318,280.446533
C199.873840,262.681274 210.407394,246.161316 224.278473,231.049774
C225.160217,229.734680 225.520142,228.837555 225.880051,227.940445
C225.880051,227.940445 225.990372,228.007278 226.333588,228.163361
C226.768387,227.837006 226.859970,227.354584 226.951569,226.872147
C226.951569,226.872147 226.953064,226.951859 227.301147,227.125336
C227.754395,226.822128 227.859558,226.345444 227.964722,225.868759
C227.964706,225.868759 227.965775,225.965240 228.306458,226.097977
C228.752777,225.776840 228.858444,225.322983 228.964096,224.869110
C228.964096,224.869110 228.965729,224.965775 229.308701,225.096283
C229.754929,224.774429 229.858185,224.322083 229.961426,223.869720
C229.961426,223.869720 229.962906,223.962570 230.306335,224.103210
C230.758408,223.787415 230.867050,223.330994 230.975693,222.874557
C230.975693,222.874557 230.974197,222.979965 231.304474,223.088272
C231.748474,222.754013 231.862213,222.311462 231.975952,221.868912
C231.975967,221.868912 231.979568,221.973877 232.320786,222.107117
C232.761383,221.783585 232.860764,221.326843 232.960144,220.870087
C232.960144,220.870087 232.962006,220.962189 233.305099,221.102509
C233.753479,220.784912 233.858749,220.327011 233.964035,219.869110
C233.964035,219.869110 233.965363,219.965042 234.304016,220.097610
C234.750671,219.776337 234.858673,219.322495 234.966675,218.868652
C234.966660,218.868652 234.968033,218.968018 235.304749,219.091705
C235.749847,218.766464 235.858231,218.317551 235.966614,217.868637
C235.966614,217.868637 235.968048,217.967972 236.311890,218.093262
C236.762543,217.771790 236.869339,217.325012 236.976135,216.878250
C236.976135,216.878250 236.973495,216.982666 237.314957,217.092758
C237.760422,216.759155 237.864426,216.315445 237.968445,215.871750
C237.968430,215.871750 237.974655,215.967957 238.340836,216.131027
C238.785416,215.821243 238.863800,215.348404 238.942200,214.875549
C238.942215,214.875549 238.999390,214.998169 239.125885,215.290726
C239.785797,215.093704 240.319214,214.604111 240.852631,214.114532
C251.474640,205.918350 261.788483,197.278915 272.790833,189.629776
C289.327271,178.133118 307.986542,170.570496 326.835388,164.005722
C339.229218,159.689148 352.450623,157.672791 365.377777,154.995117
C371.974670,153.628677 378.739807,153.074432 386.163605,152.357697
C388.883240,152.456650 390.867828,152.266113 392.853119,152.259247
C404.801025,152.218002 416.749115,152.218903 428.697144,152.205688
M681.877991,381.573425
C675.380127,377.311737 668.888550,377.655670 661.644043,380.231018
C644.699646,386.254730 642.538513,406.185364 653.625305,418.208588
C660.612610,425.786072 678.442993,426.913300 687.437439,418.205566
C700.645020,405.418884 696.885681,389.763123 681.877991,381.573425
z
  "/>
  <path fill="#2C3A1E" fill-rule="evenodd" d="
M1100.982666,249.049484
C1101.675293,256.118134 1102.615112,263.173004 1103.009277,270.258270
C1103.846313,285.303558 1104.370605,300.365997 1105.078247,315.418793
C1105.652588,327.637970 1106.285400,339.854553 1106.932007,352.070160
C1107.692871,366.442261 1108.496582,380.812134 1110.319702,395.676971
C1111.224487,394.334198 1112.298218,393.074646 1113.006836,391.635315
C1118.035156,381.423309 1122.926514,371.143646 1127.980469,360.944427
C1135.673462,345.419342 1144.490601,330.347290 1150.823364,314.291321
C1154.588867,304.744415 1160.914673,304.150879 1168.635864,303.920013
C1173.772827,303.766418 1178.936401,304.239227 1184.059937,303.944885
C1199.738525,303.044189 1215.397095,301.798309 1231.075684,300.897583
C1244.464722,300.128418 1257.867188,299.544678 1271.270996,299.099548
C1276.177856,298.936615 1276.693359,299.878326 1274.317749,304.356476
C1266.091675,319.864197 1257.644409,335.254639 1249.441528,350.774445
C1244.508545,360.107635 1239.905273,369.614563 1235.096680,379.014099
C1227.752686,393.369568 1220.312622,407.676239 1213.067383,422.081177
C1212.429810,423.348938 1212.262207,425.680084 1213.003906,426.686005
C1219.930176,436.080048 1227.160767,445.248657 1234.190552,454.567474
C1244.097168,467.699707 1253.828491,480.964783 1263.781006,494.061920
C1275.363037,509.303558 1287.103149,524.425232 1298.755859,540.344543
C1297.732178,541.888245 1296.757690,543.333435 1295.717773,543.382141
C1287.537476,543.764526 1279.344482,543.879700 1271.155518,544.077271
C1265.335205,544.889221 1259.514893,545.701233 1252.599121,546.666016
C1255.343872,548.488647 1257.119873,549.881409 1259.078247,550.934753
C1275.584106,559.812439 1287.026001,573.504517 1295.364868,589.867188
C1299.624634,598.225769 1303.662354,606.869263 1306.319946,615.823364
C1308.875977,624.435425 1309.605469,633.601501 1310.968994,642.549805
C1311.541382,646.305237 1311.679810,650.126648 1311.641113,654.538696
C1311.619629,659.207153 1311.990967,663.253418 1312.320801,667.303101
C1312.850220,673.801636 1313.352295,680.302307 1313.865723,686.802124
C1315.248047,707.486145 1316.666260,728.167786 1317.992798,748.855408
C1318.437378,755.789429 1318.638062,762.738892 1318.970459,769.680298
C1319.109497,772.580994 1317.850952,773.838318 1314.864258,773.982788
C1302.805054,774.566162 1290.747803,775.223877 1278.702026,776.037231
C1264.864258,776.971558 1251.048706,778.252380 1237.205322,779.075867
C1230.753906,779.459656 1224.259521,779.117676 1217.784546,779.109497
C1213.835083,779.104492 1209.885498,779.108521 1205.174194,779.108521
C1204.825073,775.375610 1204.345947,771.166443 1204.052002,766.944397
C1202.973877,751.459106 1201.936401,735.970886 1200.927612,720.480896
C1200.508667,714.048340 1200.137939,707.611328 1199.855103,701.171509
C1199.218262,686.664734 1198.875854,672.141052 1197.979248,657.651062
C1197.305664,646.763916 1188.488647,636.763367 1178.633057,634.799255
C1173.974976,633.870850 1165.843140,639.091248 1161.993652,644.058716
C1156.727783,650.853882 1158.005371,658.451843 1158.076782,665.934021
C1158.130493,671.558594 1158.738281,677.179016 1159.133057,682.798950
C1160.421753,701.136414 1161.813721,719.467163 1162.993530,737.811523
C1163.842651,751.013489 1164.369141,764.235840 1165.142090,777.443115
C1165.374878,781.421143 1164.059937,783.375305 1159.766968,783.056702
C1156.119629,782.785950 1152.437988,782.976929 1147.921509,782.968079
C1130.170166,783.851013 1113.268799,784.729492 1096.367554,785.607971
C1096.235107,785.794312 1096.102539,785.980591 1095.699951,786.284058
C1095.429932,786.401184 1095.691040,786.342285 1095.691040,786.342285
C1091.578247,786.553894 1087.461182,786.705688 1083.353394,786.989136
C1073.947144,787.638062 1064.543579,788.328918 1055.142578,789.049377
C1051.307007,789.343323 1050.006958,787.784180 1049.894531,783.841125
C1049.508057,770.296143 1048.698853,756.763306 1048.059448,743.225403
C1047.364868,728.520691 1046.819336,713.807007 1045.926636,699.114441
C1045.531738,692.614990 1044.374268,686.164734 1043.709229,679.677124
C1043.511475,677.749146 1043.934326,675.765564 1043.861816,673.815308
C1043.566284,665.861633 1042.718262,657.898315 1042.930420,649.961487
C1043.558472,626.460388 1048.147583,603.912720 1062.132324,584.390686
C1068.163696,575.971313 1075.254395,568.295166 1082.091431,560.480530
C1083.664062,558.683105 1086.172363,557.704224 1088.250122,556.348694
C1088.053101,555.737488 1087.856079,555.126343 1087.659058,554.515137
C1076.322632,555.280518 1064.985352,556.033936 1053.650146,556.816162
C1047.728149,557.224792 1041.814819,557.947937 1035.888550,558.062317
C1025.263428,558.267456 1014.631653,558.120117 1003.217102,558.120117
C1002.369873,546.117554 1001.545044,534.431763 1000.843445,524.491821
C996.230225,528.244324 991.046814,532.041809 986.349915,536.367615
C976.303711,545.619995 965.092163,552.919128 952.760010,558.809753
C940.708496,564.566345 928.061890,568.580750 915.051819,570.376587
C903.539124,571.965698 891.685303,571.180054 879.980896,571.257690
C867.770813,571.338623 855.908813,568.829102 844.573975,564.627991
C835.387024,561.223022 826.229492,557.279053 817.864868,552.237061
C808.477356,546.578491 799.052368,540.358093 791.372009,532.658203
C782.845032,524.109619 775.556580,514.070007 769.026672,503.850281
C761.032776,491.339478 756.422119,477.343384 754.875122,462.373932
C752.908569,443.344421 752.669861,424.415192 758.610962,406.039429
C762.591858,393.726471 768.318665,382.208740 775.728210,371.381744
C785.701538,356.808319 797.767578,344.581970 812.904297,335.750305
C822.700012,330.034882 832.987915,324.780029 843.662109,321.060242
C854.470764,317.293579 866.026489,315.670654 878.015747,313.094727
C887.783264,313.389679 896.789246,313.724335 905.797913,313.957642
C906.498901,313.975769 907.218323,313.283936 907.929138,312.922089
C916.733887,314.891144 925.668396,316.413361 934.315308,318.925720
C950.478149,323.621857 965.533569,330.687836 978.436829,341.800385
C981.885498,344.770477 985.429749,347.629608 990.247803,351.635162
C988.956848,330.334167 987.752319,310.460175 986.364380,289.897949
C985.905151,283.420532 985.735168,277.623566 985.315796,271.844757
C985.042725,268.082153 985.130371,264.041107 983.718201,260.688477
C982.451294,257.680908 982.643250,255.945114 984.929993,254.066086
C986.368713,253.726669 987.799011,253.135696 989.247498,253.087189
C1002.345886,252.648392 1015.450256,252.382462 1028.547119,251.905807
C1037.488037,251.580383 1046.419556,250.999573 1056.187012,250.457916
C1067.951050,249.895447 1078.884033,249.417526 1089.815552,248.910385
C1091.463257,248.833939 1093.646362,249.234314 1094.644287,248.352844
C1097.298218,246.008484 1098.997192,247.860886 1100.982666,249.049484
M1115.339111,497.913574
C1115.208862,500.472595 1114.812744,503.050720 1114.994629,505.587402
C1115.796265,516.762695 1116.764526,527.925964 1118.358643,538.748047
C1132.713501,534.482239 1147.068359,530.216492 1161.782837,525.843811
C1145.854370,503.906769 1129.867676,481.889618 1113.223999,458.967590
C1113.223999,462.405121 1113.141724,464.549469 1113.237915,466.685852
C1113.698975,476.929535 1114.208252,487.171051 1115.339111,497.913574
M911.465576,431.213715
C907.035767,426.562775 902.859009,421.916504 895.701355,421.063812
C880.129272,419.208618 868.621155,431.862762 869.351440,443.680023
C869.920227,452.883301 877.104858,461.242279 886.545349,463.416107
C896.110962,465.618744 904.447021,462.030792 910.372192,454.601044
C915.841064,447.743469 916.579468,439.782166 911.465576,431.213715
z
  "/>
  <path fill="#2C3A1E" fill-rule="evenodd" d="
M903.680237,587.217957
C926.727417,584.525879 948.812561,578.722412 968.981384,566.839905
C972.325012,564.869995 975.267944,564.585876 978.649353,566.933533
C994.963379,578.259888 1008.594543,591.932678 1018.590027,609.328064
C1027.199951,624.312195 1032.388062,640.274780 1034.954346,657.219421
C1035.201172,658.848816 1034.931885,660.549561 1035.051270,662.206360
C1036.037964,675.904236 1037.154785,689.593445 1038.035278,703.297974
C1038.556152,711.406982 1038.536011,719.551514 1039.088379,727.657654
C1039.918091,739.832458 1041.135498,751.980591 1041.994263,764.153809
C1042.495728,771.262939 1042.669434,778.397156 1042.890625,785.523193
C1042.984741,788.553162 1041.427490,790.012268 1038.294189,790.112122
C1020.124268,790.690857 1001.939148,791.046509 983.794495,792.091248
C969.118652,792.936279 954.493713,794.658875 939.842957,795.955811
C938.190491,796.102051 936.512024,795.936768 934.854370,796.047058
C931.289185,796.284302 929.934753,794.859924 929.826965,791.120483
C929.386475,775.838135 928.783325,760.555908 927.898010,745.293518
C927.585754,739.909912 926.268127,734.587097 925.473389,729.226990
C925.309143,728.119385 925.465149,726.967896 925.412354,725.839539
C925.036255,717.800659 924.645325,709.762451 924.256348,701.724182
C924.176514,700.073975 924.112854,698.422363 923.994629,696.774719
C923.278809,686.795288 923.268860,676.695923 921.619080,666.872437
C920.013611,657.312683 910.526733,650.163696 903.167725,649.864563
C893.008240,649.451477 882.833801,653.560669 879.775269,663.747131
C878.172180,669.086487 877.593872,674.905823 881.622498,679.723206
C884.338745,682.971130 887.491943,685.853638 890.944214,689.307678
C898.137573,690.341064 904.833984,690.993225 911.536499,691.575745
C913.636597,691.758240 915.752991,691.752808 917.861938,691.833374
C918.556213,699.386780 919.422852,706.929199 919.906372,714.496033
C920.728210,727.356750 921.308655,740.232788 921.830322,753.919983
C922.535950,764.491150 923.401794,774.244812 924.267639,783.998413
C924.112793,787.879517 923.957886,791.760620 923.037842,795.778931
C911.181580,795.948303 900.090515,795.980530 888.999451,796.012756
C875.000916,794.934875 861.244385,792.482300 848.406189,786.695740
C838.721069,782.330383 829.050354,777.677856 820.084961,772.024475
C801.596313,760.365906 787.649780,743.973022 777.635681,724.866211
C770.173035,710.627625 766.349915,694.811829 765.264099,677.811646
C765.150574,673.961426 765.159241,670.816040 765.414551,667.690735
C765.802795,662.938599 766.362061,658.200378 766.848633,653.456238
C768.164185,643.080933 770.452576,633.077087 774.567139,623.292053
C780.031982,610.296082 788.393799,599.335876 797.084778,588.663940
C801.984741,582.647095 808.504822,577.846924 814.746826,573.091736
C816.502319,571.754333 820.076782,571.755615 822.442200,572.439392
C836.963318,576.636536 851.332642,581.360046 865.860291,585.532654
C869.107361,586.465332 872.784729,585.899963 876.869019,586.445007
C886.209473,586.983154 894.944824,587.100525 903.680237,587.217957
z
  "/>
  <path fill="#2C3A1E" fill-rule="evenodd" d="
M666.959351,539.970459
C672.963074,538.943970 678.956665,537.853394 684.972473,536.903320
C701.143127,534.349487 717.163696,531.242554 732.013306,523.945618
C735.707825,522.130127 739.193237,519.893921 742.841492,517.978149
C746.292969,516.165771 747.734131,517.730103 747.941284,521.227051
C748.625793,532.784363 749.186035,544.352112 750.096802,555.891907
C750.903259,566.109863 752.244019,576.285095 753.100952,586.499939
C753.667664,593.255066 753.829285,600.045471 754.112793,606.822571
C754.445007,614.764038 754.529541,622.720154 755.049683,630.648438
C755.904297,643.674011 757.073914,656.678589 758.009033,669.699341
C758.459290,675.967529 758.699341,682.251343 758.995911,688.529907
C759.363464,696.311401 759.690979,704.094788 759.642822,712.529053
C759.516724,717.246399 759.662292,721.324585 760.082947,725.374268
C760.549866,729.869019 761.267883,734.337646 761.876526,738.817688
C762.945190,750.836304 764.070496,762.850220 765.063293,774.875122
C765.767578,783.405334 766.349426,791.947266 766.813782,800.493286
C766.861938,801.380310 765.933167,802.848755 765.121155,803.154785
C762.709961,804.063599 760.156738,804.935425 757.612854,805.097351
C740.510559,806.185791 723.398132,807.120972 706.284363,808.019043
C702.801086,808.201782 699.298523,808.015259 694.948242,808.024170
C689.298828,808.087524 684.497925,807.962158 679.714844,808.198181
C669.771423,808.688843 659.837524,809.370911 649.899719,809.974365
C649.899719,809.974304 650.044678,809.963318 649.903687,809.620117
C647.233582,806.469543 647.203308,805.464417 649.596252,803.750183
C649.016846,798.173401 648.180359,792.609192 647.907104,787.017456
C647.151428,771.549866 646.734253,756.065796 645.979980,740.598206
C645.500305,730.762878 644.614441,720.947937 643.993835,711.118652
C643.559937,704.247009 643.266602,697.366455 642.671021,689.643066
C641.336060,677.705688 640.221313,666.616943 639.209534,655.518799
C639.165222,655.032532 640.064941,654.460266 640.524963,653.928040
C639.991089,647.866089 639.302795,641.812866 638.960693,635.740051
C638.487488,627.340393 638.275024,618.925964 637.577515,609.734619
C636.212402,595.874268 635.204590,582.798340 634.288208,569.716003
C634.252258,569.202576 635.089294,568.627930 635.519470,568.081848
C634.664307,559.357361 633.809143,550.632874 633.439575,541.461548
C644.936523,540.666626 655.947937,540.318542 666.959351,539.970459
z
  "/>
</svg>